PathFileType	4	(X/Y/Z)	 s07c0202.trc
DataRate	CameraRate	NumFrames	NumMarkers	Units	OrigDataRate	OrigDataStartFrame	OrigNumFrames
200	200	5	48	mm	200	251	2000
Frame#	Time	racr			lacr			c7			jug			rlel			rdr			llel			ldr			s2			lic			ric			lasi			rasi			rpsi			lpsi			rgt			lgt			rth1			rth2			rth3			rth4			rlfc			rmfc			rsh1			rsh2			rsh3			rsh4			rlmal			rcal			rtoe			rmt5			lth1			lth2			lth4			lth3			llfc			lmfc			lsh1			lsh2			lsh3			lsh4			llmal			lcal			ltoe			lmt5			SBIKE			LBIKE			RBIKE			
		X1	Y1	Z1	X2	Y2	Z2	X3	Y3	Z3	X4	Y4	Z4	X5	Y5	Z5	X6	Y6	Z6	X7	Y7	Z7	X8	Y8	Z8	X9	Y9	Z9	X10	Y10	Z10	X11	Y11	Z11	X12	Y12	Z12	X13	Y13	Z13	X14	Y14	Z14	X15	Y15	Z15	X16	Y16	Z16	X17	Y17	Z17	X18	Y18	Z18	X19	Y19	Z19	X20	Y20	Z20	X21	Y21	Z21	X22	Y22	Z22	X23	Y23	Z23	X24	Y24	Z24	X25	Y25	Z25	X26	Y26	Z26	X27	Y27	Z27	X28	Y28	Z28	X29	Y29	Z29	X30	Y30	Z30	X31	Y31	Z31	X32	Y32	Z32	X33	Y33	Z33	X34	Y34	Z34	X35	Y35	Z35	X36	Y36	Z36	X37	Y37	Z37	X38	Y38	Z38	X39	Y39	Z39	X40	Y40	Z40	X41	Y41	Z41	X42	Y42	Z42	X43	Y43	Z43	X44	Y44	Z44	X45	Y45	Z45	X46	Y46	Z46	X47	Y47	Z47	X48	Y48	Z48	
251	1.2550	422.495641	1472.522590	-72.771460	417.580667	1462.651553	-356.647913	395.999743	1500.430647	-219.333091	373.101209	1357.845685	-216.283560	496.809036	1153.866223	52.088677	693.254774	939.873232	-31.633208	510.042740	1158.429621	-473.523360	696.171912	930.773228	-430.433662	-138.304353	1198.306989	-243.488014	30.022301	1254.056034	-380.048017	26.564322	1243.656052	-85.228221	64.143187	1173.667592	-351.667231	41.263268	1187.374091	-103.490302	-116.270623	1238.290348	-189.612643	-97.836333	1247.832342	-298.022908	-28.570252	1124.933828	-42.879283	-23.516597	1094.730426	-409.126138	114.883564	1072.327910	-40.814197	201.414040	1062.495550	-52.540637	273.015052	1016.064943	-49.003971	211.360968	1092.644610	-71.823558	394.205431	940.289955	-84.085112	390.550287	925.311958	-190.562212	344.734950	805.562968	-61.139250	333.245506	718.326001	-80.478720	283.840701	647.467233	-76.154487	350.605644	716.096427	-116.246002	227.268417	524.829504	-78.029087	156.494214	495.322520	-108.256798	437.876335	424.905803	-119.358677	355.196504	405.544357	-49.343488	40.963544	990.201580	-415.605074	112.508941	938.247406	-417.372826	140.592898	960.468240	-409.036891	148.754386	856.921541	-411.991506	243.045191	704.419082	-379.044289	227.484059	687.477755	-281.944840	150.662723	585.593938	-403.997708	114.077862	509.708521	-385.179166	43.744421	454.716964	-396.413353	116.160984	510.965145	-343.221569	-46.368889	355.579629	-397.558978	-126.698912	336.670514	-364.971087	142.998316	233.298395	-353.285636	60.947073	233.402284	-419.696814	-259.478052	970.455691	-232.983375	-75.648244	83.454613	-438.028612	-82.443164	79.499507	-40.382034	
252	1.2600	422.520199	1472.505918	-72.811633	417.581491	1462.626395	-356.646964	396.004406	1500.419307	-219.306124	373.138874	1357.836818	-216.287951	496.827907	1153.866479	52.113645	693.270775	939.868986	-31.629795	510.061175	1158.422053	-473.570149	696.169275	930.759564	-430.445964	-138.282573	1198.300232	-243.507919	30.049132	1254.034298	-380.055214	26.571271	1243.686374	-85.272364	64.151351	1173.640164	-351.677772	41.262567	1187.394430	-103.498024	-116.278892	1238.319071	-189.635395	-97.710455	1247.714141	-297.925960	-28.574981	1124.936507	-42.875912	-23.526272	1094.698304	-409.142559	114.884965	1072.350155	-40.831626	201.429821	1062.513952	-52.566832	273.038612	1016.080646	-49.025352	211.377835	1092.654728	-71.837663	394.223522	940.325756	-84.107419	390.548472	925.347173	-190.579854	344.750125	805.607983	-61.163242	333.264996	718.367754	-80.470762	283.818442	647.507759	-76.153975	350.597946	716.153404	-116.276656	227.227891	524.883788	-78.039787	156.469889	495.368128	-108.279366	437.831108	424.967591	-119.327685	355.147052	405.605024	-49.343877	40.944345	990.158600	-415.609200	112.480218	938.217634	-417.390266	140.571448	960.406744	-409.051000	148.726805	856.845437	-411.983846	242.964766	704.338440	-379.061093	227.410249	687.405986	-281.955723	150.602764	585.534985	-404.017469	114.047866	509.550761	-385.127461	43.702756	454.634511	-396.413692	116.101039	510.925097	-343.245697	-46.557679	355.099383	-396.956886	-126.721186	336.519369	-364.965692	143.024456	233.277934	-353.287230	60.970198	233.343027	-419.681683	-259.463195	970.447245	-233.005515	-75.624035	83.438227	-438.022941	-82.440958	79.494853	-40.380487	
253	1.2650	422.560866	1472.477564	-72.810983	417.614800	1462.624912	-356.688921	396.036052	1500.387025	-219.310353	373.160516	1357.793521	-216.304206	496.829112	1153.831950	52.125566	693.266470	939.855670	-31.609199	510.081013	1158.421385	-473.614355	696.184248	930.768740	-430.482714	-138.263308	1198.291703	-243.539190	30.051652	1254.017275	-380.048262	26.539617	1243.695159	-85.307544	64.160279	1173.632609	-351.670367	41.270499	1187.405123	-103.510154	-116.270208	1238.318863	-189.672852	-97.816725	1247.807565	-298.065988	-28.567661	1124.934788	-42.893141	-23.525087	1094.684340	-409.149028	114.883015	1072.365616	-40.859731	201.436468	1062.522863	-52.579353	273.051503	1016.110079	-49.045473	211.377273	1092.686116	-71.838654	394.249473	940.354223	-84.110170	390.570633	925.372982	-190.579784	344.762697	805.658312	-61.170746	333.283285	718.407520	-80.489756	283.857968	647.545339	-76.156170	350.596170	716.190734	-116.314605	227.216407	524.942494	-78.030103	156.433871	495.470002	-108.243293	437.824253	425.128428	-119.448342	355.134099	405.652814	-49.348696	40.921793	990.126043	-415.630147	112.458947	938.173011	-417.386021	140.544453	960.357660	-409.078698	148.679087	856.797047	-412.017099	242.912160	704.272193	-379.061689	227.360508	687.367493	-281.948943	150.546214	585.460314	-404.016712	113.989924	509.477406	-385.125398	43.653279	454.559900	-396.407795	116.048927	510.861754	-343.240959	-46.474561	355.313168	-397.442648	-126.748976	336.393493	-364.952782	143.028874	233.267063	-353.286569	60.992739	233.312546	-419.691732	-259.479011	970.451991	-233.001702	-75.639499	83.431453	-438.020198	-82.442991	79.490633	-40.373587	
254	1.2700	422.579961	1472.451310	-72.836126	417.634491	1462.598128	-356.668048	396.056224	1500.365086	-219.349044	373.160864	1357.781462	-216.309935	496.814910	1153.802632	52.187843	693.244187	939.849215	-31.601581	510.106208	1158.424988	-473.667658	696.176842	930.763500	-430.509753	-138.280121	1198.289222	-243.551892	30.087633	1254.003726	-380.080466	26.546562	1243.725416	-85.351666	64.162206	1173.612489	-351.675097	41.271774	1187.418759	-103.548275	-116.267573	1238.327750	-189.688053	-97.793796	1247.806213	-298.098457	-28.550260	1124.948506	-42.918250	-23.524897	1094.653044	-409.149706	114.919693	1072.386280	-40.871624	201.467614	1062.541204	-52.610352	273.130954	1016.124049	-48.992771	211.392033	1092.724469	-71.851193	394.273430	940.403609	-84.117341	390.590716	925.429774	-190.608718	344.820419	805.690663	-61.176426	333.324124	718.469639	-80.514221	283.859303	647.607583	-76.157368	350.617673	716.249327	-116.312648	227.206523	525.029889	-78.040573	156.440856	495.529366	-108.261254	437.806202	425.140672	-119.426251	355.106829	405.706108	-49.336693	40.908096	990.077282	-415.649178	112.416955	938.115819	-417.398536	140.522916	960.300828	-409.070078	148.624436	856.752765	-412.030805	242.832369	704.205694	-379.066630	227.294031	687.305008	-281.955365	150.474414	585.401561	-404.010397	113.952951	509.411061	-385.108668	43.595915	454.509824	-396.402119	115.997636	510.793719	-343.234895	-46.510400	355.043675	-397.144223	-126.801778	336.286246	-364.948186	143.051145	233.280804	-353.287958	60.979296	233.276442	-419.689221	-259.488534	970.452489	-232.990205	-75.634092	83.438903	-438.020120	-82.444520	79.498486	-40.376411	
255	1.2750	422.606995	1472.435818	-72.832952	417.667800	1462.596620	-356.710012	396.117582	1500.337121	-219.351501	373.219237	1357.774075	-216.337263	496.796117	1153.772699	52.243134	693.242296	939.864400	-31.592815	510.122553	1158.430274	-473.732095	696.192364	930.743111	-430.542602	-138.248786	1198.289303	-243.583099	30.100646	1253.968703	-380.110100	26.576413	1243.694721	-85.419871	64.175402	1173.618820	-351.696643	41.307037	1187.437363	-103.564003	-116.248988	1238.319160	-189.709657	-97.784651	1247.801880	-298.119708	-28.531203	1124.957183	-42.913168	-23.533093	1094.621470	-409.165119	114.940350	1072.397436	-40.902788	201.492367	1062.592153	-52.611682	273.156081	1016.157275	-49.004369	211.418594	1092.757840	-71.887166	394.300912	940.460803	-84.108814	390.623777	925.486764	-190.614322	344.883813	805.744821	-61.178234	333.374940	718.536491	-80.491182	283.928538	647.656172	-76.145152	350.651780	716.328559	-116.332362	227.245044	525.089862	-77.998265	156.486543	495.624976	-108.252882	437.804391	425.137154	-119.448230	355.097842	405.733966	-49.339242	40.878079	990.039573	-415.671123	112.402006	938.061203	-417.406557	140.479561	960.239261	-409.073069	148.590129	856.695480	-411.998662	242.773988	704.144733	-379.046776	227.213922	687.252538	-281.945057	150.423712	585.355675	-404.006249	113.897683	509.344398	-385.123302	43.528812	454.408353	-396.380114	115.915446	510.766686	-343.240071	-46.526508	355.264409	-397.555219	-126.842332	336.199663	-364.962172	143.045884	233.293556	-353.297322	60.998763	233.255379	-419.681309	-259.491213	970.472433	-233.008386	-75.632416	83.439842	-438.024669	-82.447540	79.495326	-40.390044	
